<svg xmlns="http://www.w3.org/2000/svg" width="174" height="174" viewBox="0 0 174 174">
  <defs>
    <linearGradient id="record-a" x1="50%" x2="50%" y1="2.201%" y2="97.473%">
      <stop offset="0%" stop-color="#EEE"/>
      <stop offset="100%" stop-color="#E2E2E2"/>
    </linearGradient>
  </defs>
  <g fill="none" fill-rule="evenodd" transform="translate(3 3)">
    <circle cx="84" cy="84" r="85.5" stroke="#979797" stroke-width="3"/>
    <g stroke="#979797" transform="translate(3 3)">
      <circle cx="81" cy="81" r="80.5"/>
      <circle cx="81" cy="81" r="77.5"/>
      <circle cx="81" cy="81" r="74.5"/>
      <circle cx="81" cy="81" r="71.5"/>
      <circle cx="81" cy="81" r="68.5"/>
      <circle cx="81" cy="81" r="65.5"/>
      <circle cx="81" cy="81" r="62.5"/>
      <circle cx="81" cy="81" r="59.5"/>
      <circle cx="81" cy="81" r="56.5"/>
      <circle cx="81" cy="81" r="53.5"/>
      <circle cx="81" cy="81" r="50.5"/>
      <circle cx="81" cy="81" r="47.5"/>
      <circle cx="81" cy="81" r="44.5"/>
    </g>
    <g transform="translate(44 44)">
      <circle cx="40" cy="40" r="40" fill="#979797" opacity=".422"/>
      <circle cx="40" cy="40" r="26" fill="#C9C9C9" opacity=".422"/>
      <circle cx="40.5" cy="40.5" r="2.5" fill="#979797"/>
    </g>
    <path fill="url(#record-a)" d="M140.406219,65.1191406 C140.406219,65.1191406 144.041004,66.6933594 146.212891,66.6933594 C148.384777,66.6933594 152.019562,65.1191406 152.019562,65.1191406 L161.712891,104.119141 C161.712891,104.119141 151.061994,105.693359 146.212891,105.693359 C141.363788,105.693359 130.712891,104.119141 130.712891,104.119141 L140.406219,65.1191406 Z" transform="rotate(-90 146.213 85.406)"/>
    <path fill="url(#record-a)" d="M78.6933286,126 C78.6933286,126 82.3281132,127.574219 84.5,127.574219 C86.6718868,127.574219 90.3066714,126 90.3066714,126 L100,165 C100,165 89.3491031,166.574219 84.5,166.574219 C79.6508969,166.574219 69,165 69,165 L78.6933286,126 Z"/>
    <path fill="url(#record-a)" d="M78.6933286,1 C78.6933286,1 82.3281132,2.57421875 84.5,2.57421875 C86.6718868,2.57421875 90.3066714,1 90.3066714,1 L100,40 C100,40 89.3491031,41.5742188 84.5,41.5742188 C79.6508969,41.5742188 69,40 69,40 L78.6933286,1 Z" transform="matrix(1 0 0 -1 0 42.574)"/>
    <path fill="url(#record-a)" d="M16.4062192,65.1191406 C16.4062192,65.1191406 20.0410038,66.6933594 22.2128906,66.6933594 C24.3847774,66.6933594 28.019562,65.1191406 28.019562,65.1191406 L37.7128906,104.119141 C37.7128906,104.119141 27.0619937,105.693359 22.2128906,105.693359 C17.3637875,105.693359 6.71289062,104.119141 6.71289062,104.119141 L16.4062192,65.1191406 Z" transform="matrix(0 -1 -1 0 107.62 107.62)"/>
  </g>
</svg>
