<svg xmlns="http://www.w3.org/2000/svg" width="54" height="54" viewBox="0 0 54 54">
  <path fill="none" stroke="#FFF" stroke-width="4" d="M969.685117,689.830146 L969.981364,692.104515 L972.19424,691.501443 C972.234696,691.490418 972.277041,691.484721 972.321806,691.484721 L998.326776,691.484721 C998.597064,691.484721 998.824291,691.713371 998.824291,691.994496 L998.824291,692.974945 C998.824291,693.257054 998.597521,693.484721 998.326776,693.484721 L972.321806,693.484721 C972.266588,693.484721 972.215003,693.476074 972.166178,693.459366 L969.971167,692.708238 L969.551621,694.989958 C968.12317,702.758655 961.317885,708.484721 953.324291,708.484721 C944.211593,708.484721 936.824291,701.097419 936.824291,691.984721 C936.824291,682.872022 944.211593,675.484721 953.324291,675.484721 C961.635413,675.484721 968.621652,681.66565 969.685117,689.830146 Z" transform="rotate(44 1319.316 -801.569)"/>
</svg>
